<svg id="圖層_1" data-name="圖層 1" xmlns="http://www.w3.org/2000/svg" viewBox="0 0 30.76 30">
    <defs>
        <style>.cls-1{fill:#fff;fill-rule:evenodd;}</style>
    </defs>
    <path class="cls-1" d="M16,1a15.38,15.38,0,0,0-4.86,30c.77.14,1-.33,1-.74s0-1.33,0-2.61C7.89,28.55,7,25.55,7,25.55a4.05,4.05,0,0,0-1.71-2.24c-1.4-1,.1-.94.1-.94A3.23,3.23,0,0,1,7.74,24a3.27,3.27,0,0,0,4.48,1.27,3.26,3.26,0,0,1,1-2.05c-3.41-.39-7-1.71-7-7.6a6,6,0,0,1,1.58-4.13,5.5,5.5,0,0,1,.15-4.07S9.21,7,12.15,9a14.51,14.51,0,0,1,7.7,0c2.94-2,4.23-1.58,4.23-1.58a5.5,5.5,0,0,1,.15,4.07,5.91,5.91,0,0,1,1.58,4.13c0,5.9-3.6,7.2-7,7.58a3.7,3.7,0,0,1,1,2.85c0,2.06,0,3.72,0,4.22s.28.89,1.06.74A15.38,15.38,0,0,0,16,1Z" transform="translate(-0.62 -1)" />
</svg>